<svg xmlns="http://www.w3.org/2000/svg" width="104.875" height="30.094" viewBox="0 0 104.875 30.094">
  <defs>
    <style>
      .cls-1 {
        fill-rule: evenodd;
      }
    </style>
  </defs>
  <path id="logo" class="cls-1" d="M394.1,402.652a7.626,7.626,0,0,0-5.56,1.88v-9.28H379.5v29.68h8.6v-1.8q1.959,2.2,6,2.2a10.515,10.515,0,0,0,5.3-1.38,9.954,9.954,0,0,0,3.84-3.98,13.344,13.344,0,0,0,0-11.98,9.991,9.991,0,0,0-3.84-3.96,10.515,10.515,0,0,0-5.3-1.38h0Zm-2.16,15.64a3.251,3.251,0,0,1-2.56-1.14,4.661,4.661,0,0,1-1-3.18,4.584,4.584,0,0,1,1-3.16,3.486,3.486,0,0,1,5.12,0,4.589,4.589,0,0,1,1,3.16,4.666,4.666,0,0,1-1,3.18,3.253,3.253,0,0,1-2.56,1.14h0Zm15.559,6.64h9.04v-29.68H407.5v29.68Zm24.6,0.4a14.426,14.426,0,0,0,6.58-1.46,11.094,11.094,0,0,0,4.52-4.04,11.409,11.409,0,0,0,0-11.72,10.958,10.958,0,0,0-4.52-4.02,15.662,15.662,0,0,0-13.12,0,11.089,11.089,0,0,0-4.54,4.02,11.289,11.289,0,0,0,0,11.72,11.227,11.227,0,0,0,4.54,4.04,14.33,14.33,0,0,0,6.54,1.46h0Zm0-7.04a3.251,3.251,0,0,1-2.56-1.14,4.661,4.661,0,0,1-1-3.18,4.584,4.584,0,0,1,1-3.16,3.486,3.486,0,0,1,5.12,0,4.589,4.589,0,0,1,1,3.16,4.666,4.666,0,0,1-1,3.18,3.253,3.253,0,0,1-2.56,1.14h0Zm44.36-15.24-3.92,11.68-3.8-11.68h-7.68l-3.92,11.56-3.76-11.56h-8.56l7.6,21.88h8.8l3.44-10.12,3.32,10.12h8.8l7.6-21.88h-7.92Z" transform="translate(-379.5 -395.25)"/>
</svg>
